<svg width="45" height="25" viewBox="0 0 45 25" fill="none" xmlns="http://www.w3.org/2000/svg">
<path d="M25.4387 0.863564C25.9592 0.368031 26.6518 0.09408 27.3704 0.0995176C28.0891 0.104955 28.7775 0.389357 29.2904 0.892709C29.8034 1.39606 30.1007 2.079 30.1197 2.79741C30.1387 3.51581 29.8779 4.21351 29.3922 4.74326L14.6494 23.1811C14.3959 23.4541 14.0899 23.6732 13.7498 23.8253C13.4097 23.9774 13.0424 24.0594 12.6698 24.0663C12.2973 24.0732 11.9272 24.0049 11.5817 23.8655C11.2362 23.7261 10.9223 23.5184 10.6589 23.255L0.882015 13.4781C0.609746 13.2244 0.391366 12.9185 0.239903 12.5785C0.0884396 12.2386 0.00699641 11.8717 0.000431279 11.4996C-0.00613385 11.1275 0.0623138 10.7579 0.201691 10.4128C0.341068 10.0677 0.54852 9.75428 0.811669 9.49113C1.07482 9.22798 1.38828 9.02053 1.73334 8.88115C2.0784 8.74177 2.44801 8.67333 2.8201 8.67989C3.19219 8.68646 3.55915 8.7679 3.89908 8.91936C4.23902 9.07083 4.54496 9.28921 4.79866 9.56148L12.5359 17.295L25.3648 0.944854C25.3878 0.916327 25.4124 0.889183 25.4387 0.863564ZM22.0393 19.8556L25.4387 23.255C25.702 23.5179 26.0157 23.725 26.3609 23.8641C26.706 24.0031 27.0757 24.0713 27.4478 24.0644C27.8198 24.0575 28.1867 23.9757 28.5265 23.8239C28.8663 23.6722 29.172 23.4535 29.4255 23.1811L44.1757 4.74326C44.4407 4.48166 44.6502 4.16935 44.7918 3.82498C44.9334 3.4806 45.0042 3.11122 44.9998 2.7389C44.9955 2.36658 44.9161 1.99895 44.7666 1.65797C44.617 1.31699 44.4002 1.00965 44.1292 0.754303C43.8582 0.498955 43.5386 0.300837 43.1893 0.171781C42.84 0.0427257 42.4683 -0.0146223 42.0964 0.00316338C41.7245 0.0209491 41.36 0.113504 41.0246 0.275299C40.6893 0.437095 40.3899 0.664812 40.1446 0.944854L27.312 17.295L25.5199 15.4993L22.0356 19.8556H22.0393Z" fill="#FEF9EF"/>
</svg>
