<svg width="40" height="39" viewBox="0 0 40 39" fill="none" xmlns="http://www.w3.org/2000/svg">
<path d="M27 4.5C27 2.41875 28.6687 0.75 30.75 0.75C32.8313 0.75 34.5 2.41875 34.5 4.5C34.5 6.58125 32.8313 8.25 30.75 8.25C28.6687 8.25 27 6.58125 27 4.5ZM34.5 38.25V27H39.1875L34.425 12.6937C34.1742 11.947 33.6956 11.2975 33.0566 10.8368C32.4176 10.376 31.6503 10.1271 30.8625 10.125H30.6375C29.849 10.1243 29.0804 10.3721 28.4408 10.8333C27.8013 11.2944 27.3234 11.9454 27.075 12.6937L25.4625 17.5312C27.4875 18.6562 28.875 20.775 28.875 23.25V38.25H34.5ZM20.4375 18.5625C21.9937 18.5625 23.25 17.3062 23.25 15.75C23.25 14.1938 21.9937 12.9375 20.4375 12.9375C18.8813 12.9375 17.625 14.1938 17.625 15.75C17.625 17.3062 18.8813 18.5625 20.4375 18.5625ZM7.3125 8.25C9.39375 8.25 11.0625 6.58125 11.0625 4.5C11.0625 2.41875 9.39375 0.75 7.3125 0.75C5.23125 0.75 3.5625 2.41875 3.5625 4.5C3.5625 6.58125 5.23125 8.25 7.3125 8.25ZM11.0625 38.25V25.125H13.875V13.875C13.875 11.8125 12.1875 10.125 10.125 10.125H4.5C2.4375 10.125 0.75 11.8125 0.75 13.875V25.125H3.5625V38.25H11.0625ZM23.25 38.25V30.75H25.125V23.25C25.125 21.7125 23.85 20.4375 22.3125 20.4375H18.5625C17.025 20.4375 15.75 21.7125 15.75 23.25V30.75H17.625V38.25H23.25Z" fill="#FEF9EF"/>
</svg>
