<svg width="45" height="53" viewBox="0 0 45 53" fill="none" xmlns="http://www.w3.org/2000/svg">
<path d="M29.6068 3.19141C30.0091 3.04406 30.3381 2.74565 30.5239 2.3596C30.7097 1.97354 30.7376 1.53026 30.6017 1.12395C30.4658 0.717637 30.1769 0.380314 29.7963 0.183653C29.4157 -0.0130084 28.9733 -0.0535071 28.5633 0.0707618C25.4756 1.09781 23.5532 3.63252 22.4208 6.34828C22.2687 6.71536 22.1293 7.08755 22.0027 7.46421C21.3861 6.29606 20.5971 5.22741 19.6622 4.29418C18.397 3.02619 16.8857 2.03041 15.2214 1.36807C13.557 0.705731 11.7748 0.390833 9.98426 0.442738C8.0783 0.495407 6.55089 2.02282 6.49822 3.92878C6.44631 5.71932 6.76121 7.50155 7.42355 9.16588C8.08589 10.8302 9.08167 12.3415 10.3497 13.6068L10.4517 13.7055C7.68656 14.3045 5.1877 15.7778 3.32495 17.9073C1.46219 20.0368 0.334508 22.7095 0.108782 25.5298L0.0890308 25.7733C-0.344547 31.196 0.811972 36.6274 3.41707 41.4029L4.59883 43.5657C4.63175 43.6249 4.66467 43.6809 4.70417 43.7368L7.996 48.3454C8.74182 49.3905 9.70637 50.2605 10.8225 50.895C11.9387 51.5295 13.1797 51.9132 14.4593 52.0194C15.7388 52.1256 17.0261 51.9518 18.2316 51.51C19.4371 51.0683 20.5319 50.3691 21.4398 49.4613C21.5792 49.3219 21.7447 49.2113 21.9269 49.1358C22.109 49.0603 22.3043 49.0215 22.5014 49.0215C22.6986 49.0215 22.8938 49.0603 23.076 49.1358C23.2582 49.2113 23.4237 49.3219 23.563 49.4613C24.4707 50.3693 25.5654 51.0686 26.7707 51.5107C27.9761 51.9527 29.2633 52.1269 30.5428 52.021C31.8223 51.9151 33.0634 51.5317 34.1797 50.8975C35.296 50.2633 36.2608 49.3935 37.0069 48.3487L40.2987 43.7368C40.3373 43.682 40.3725 43.6249 40.404 43.5657L41.5858 41.4029C44.1898 36.627 45.3451 31.1956 44.9105 25.7733L44.8941 25.5298C44.7484 23.712 44.2267 21.9442 43.3621 20.3386C42.4974 18.733 41.3087 17.3245 39.8712 16.2023C38.4337 15.0802 36.7788 14.2689 35.0113 13.8198C33.2438 13.3707 31.4024 13.2937 29.6036 13.5936L24.149 14.5021C24.1819 12.2604 24.5769 9.73557 25.4624 7.61234C26.3841 5.39035 27.7535 3.81028 29.6068 3.19141V3.19141ZM12.3248 22.9424C11.8194 23.1022 11.3506 23.3604 10.9456 23.7022C10.5405 24.044 10.207 24.4626 9.96451 24.9339C9.35552 26.0795 8.93746 27.969 9.32261 31.0501C9.36899 31.4791 9.24506 31.9092 8.97749 32.2477C8.70992 32.5862 8.32011 32.8061 7.892 32.8601C7.46389 32.914 7.03172 32.7977 6.68853 32.5361C6.34535 32.2746 6.1186 31.8887 6.05711 31.4616C5.6193 27.9591 6.0242 25.3224 7.06112 23.3835C8.11451 21.4084 9.71763 20.3418 11.2845 19.8184C11.6988 19.6805 12.1509 19.7128 12.5414 19.9082C12.9318 20.1035 13.2287 20.446 13.3666 20.8603C13.5046 21.2746 13.4723 21.7266 13.2769 22.1171C13.0815 22.5076 12.739 22.8044 12.3248 22.9424V22.9424Z" fill="#FEF9EF"/>
</svg>
