<svg width="70" height="70" viewBox="0 0 70 70" fill="none" xmlns="http://www.w3.org/2000/svg">
<path d="M35 0C15.6625 0 0 15.6625 0 35C0 50.4875 10.0187 63.5688 23.9312 68.2063C25.6812 68.5125 26.3375 67.4625 26.3375 66.5437C26.3375 65.7125 26.2938 62.9563 26.2938 60.025C17.5 61.6438 15.225 57.8812 14.525 55.9125C14.1312 54.9062 12.425 51.8 10.9375 50.9688C9.7125 50.3125 7.9625 48.6937 10.8938 48.65C13.65 48.6063 15.6188 51.1875 16.275 52.2375C19.425 57.5312 24.4563 56.0438 26.4688 55.125C26.775 52.85 27.6938 51.3187 28.7 50.4437C20.9125 49.5687 12.775 46.55 12.775 33.1625C12.775 29.3562 14.1313 26.2062 16.3625 23.7562C16.0125 22.8812 14.7875 19.2938 16.7125 14.4812C16.7125 14.4812 19.6437 13.5625 26.3375 18.0688C29.1375 17.2812 32.1125 16.8875 35.0875 16.8875C38.0625 16.8875 41.0375 17.2812 43.8375 18.0688C50.5312 13.5188 53.4625 14.4812 53.4625 14.4812C55.3875 19.2938 54.1625 22.8812 53.8125 23.7562C56.0438 26.2062 57.4 29.3125 57.4 33.1625C57.4 46.5938 49.2188 49.5687 41.4313 50.4437C42.7 51.5375 43.7938 53.6375 43.7938 56.9188C43.7938 61.6 43.75 65.3625 43.75 66.5437C43.75 67.4625 44.4062 68.5563 46.1562 68.2063C53.1047 65.8612 59.1427 61.3959 63.4201 55.4389C67.6975 49.482 69.9988 42.3335 70 35C70 15.6625 54.3375 0 35 0Z" fill="white"/>
</svg>
