<svg width="45" height="45" viewBox="0 0 45 45" fill="none" xmlns="http://www.w3.org/2000/svg">
<path d="M44.4167 23.2095L24.169 0.712045C23.3164 -0.237348 21.6785 -0.237348 20.8259 0.712045L0.578149 23.2095C0.286708 23.5326 0.0954084 23.9334 0.02751 24.3631C-0.0403883 24.7929 0.0180402 25.2331 0.195691 25.6303C0.555651 26.4424 1.36106 26.9644 2.24971 26.9644H6.74921V42.7126C6.74921 43.3093 6.98624 43.8815 7.40815 44.3034C7.83006 44.7253 8.40229 44.9623 8.99896 44.9623H15.7482C16.3449 44.9623 16.9171 44.7253 17.339 44.3034C17.7609 43.8815 17.998 43.3093 17.998 42.7126V33.7136H26.9969V42.7126C26.9969 43.3093 27.234 43.8815 27.6559 44.3034C28.0778 44.7253 28.65 44.9623 29.2467 44.9623H35.9959C36.5926 44.9623 37.1648 44.7253 37.5868 44.3034C38.0087 43.8815 38.2457 43.3093 38.2457 42.7126V26.9644H42.7452C43.1809 26.9662 43.6077 26.8413 43.9736 26.6047C44.3395 26.3682 44.6287 26.0303 44.8059 25.6323C44.9831 25.2342 45.0407 24.7932 44.9716 24.363C44.9025 23.9328 44.7097 23.5321 44.4167 23.2095V23.2095Z" fill="#FEF9EF"/>
</svg>
