<svg width="60" height="60" viewBox="0 0 60 60" fill="none" xmlns="http://www.w3.org/2000/svg">
<path opacity="0.3" d="M30 0C24.0666 0 18.2664 1.75947 13.3329 5.05591C8.39943 8.35235 4.55426 13.0377 2.28363 18.5195C0.0129986 24.0013 -0.581101 30.0333 0.576455 35.8527C1.73401 41.6721 4.59123 47.0176 8.78681 51.2132C12.9824 55.4088 18.3279 58.266 24.1473 59.4235C29.9667 60.5811 35.9987 59.987 41.4805 57.7164C46.9623 55.4457 51.6476 51.6006 54.9441 46.6671C58.2405 41.7336 60 35.9334 60 30C60 26.0603 59.224 22.1593 57.7164 18.5195C56.2088 14.8797 53.999 11.5726 51.2132 8.78679C48.4275 6.00104 45.1203 3.79125 41.4805 2.28361C37.8407 0.775973 33.9397 0 30 0V0ZM33 42C33 42.7956 32.6839 43.5587 32.1213 44.1213C31.5587 44.6839 30.7957 45 30 45C29.2044 45 28.4413 44.6839 27.8787 44.1213C27.3161 43.5587 27 42.7956 27 42V27C27 26.2043 27.3161 25.4413 27.8787 24.8787C28.4413 24.3161 29.2044 24 30 24C30.7957 24 31.5587 24.3161 32.1213 24.8787C32.6839 25.4413 33 26.2043 33 27V42ZM30 21C29.4067 21 28.8266 20.824 28.3333 20.4944C27.84 20.1648 27.4554 19.6962 27.2284 19.148C27.0013 18.5999 26.9419 17.9967 27.0577 17.4147C27.1734 16.8328 27.4591 16.2982 27.8787 15.8787C28.2982 15.4591 28.8328 15.1734 29.4147 15.0576C29.9967 14.9419 30.5999 15.0013 31.1481 15.2284C31.6962 15.4554 32.1648 15.8399 32.4944 16.3333C32.8241 16.8266 33 17.4067 33 18C33 18.7956 32.6839 19.5587 32.1213 20.1213C31.5587 20.6839 30.7957 21 30 21Z" fill="#073B4C"/>
</svg>
