<svg width="70" height="70" viewBox="0 0 70 70" fill="none" xmlns="http://www.w3.org/2000/svg">
<path d="M0 5.01375C0 2.24437 2.30125 0 5.14062 0H64.8594C67.6987 0 70 2.24437 70 5.01375V64.9863C70 67.7556 67.6987 70 64.8594 70H5.14062C2.30125 70 0 67.7556 0 64.9863V5.01375ZM21.6256 58.5988V26.9894H11.1213V58.5988H21.6256ZM16.3756 22.6713C20.0375 22.6713 22.3169 20.2475 22.3169 17.2113C22.2512 14.1094 20.0419 11.7513 16.4456 11.7513C12.8494 11.7513 10.5 14.1138 10.5 17.2113C10.5 20.2475 12.7794 22.6713 16.3056 22.6713H16.3756ZM37.8481 58.5988V40.9456C37.8481 40.0006 37.9181 39.0556 38.1981 38.3819C38.955 36.4963 40.6831 34.5406 43.5881 34.5406C47.39 34.5406 48.9081 37.4369 48.9081 41.6894V58.5988H59.4125V40.4688C59.4125 30.7563 54.2325 26.2413 47.32 26.2413C41.7463 26.2413 39.2481 29.3037 37.8481 31.4606V31.57H37.7781C37.8014 31.5335 37.8247 31.497 37.8481 31.4606V26.9894H27.3481C27.4794 29.9556 27.3481 58.5988 27.3481 58.5988H37.8481Z" fill="white"/>
</svg>
