<svg width="45" height="45" viewBox="0 0 45 45" fill="none" xmlns="http://www.w3.org/2000/svg">
<path d="M22.5 0C10.08 0 0 10.08 0 22.5C0 34.92 10.08 45 22.5 45C34.92 45 45 34.92 45 22.5C45 10.08 34.92 0 22.5 0ZM24.75 7.425L27.7875 5.2875C31.8576 6.54874 35.3492 9.21126 37.6425 12.8025L36.765 15.8175L33.7275 16.8525L24.75 10.575V7.425ZM17.2125 5.2875L20.25 7.425V10.575L11.2725 16.8525L8.235 15.8175L7.3575 12.8025C9.66418 9.22358 13.1507 6.56487 17.2125 5.2875ZM11.43 33.9975L8.865 34.2225C6.0445 30.9689 4.49436 26.8059 4.5 22.5C4.5 22.23 4.5225 21.9825 4.545 21.7125L6.795 20.07L9.9 21.15L13.185 30.915L11.43 33.9975ZM28.125 39.5775C26.3475 40.1625 24.4575 40.5 22.5 40.5C20.5425 40.5 18.6525 40.1625 16.875 39.5775L15.3225 36.225L16.7625 33.75H28.26L29.7 36.2475L28.125 39.5775ZM27.6075 29.25H17.3925L14.355 20.205L22.5 14.49L30.6675 20.205L27.6075 29.25ZM36.135 34.2225L33.57 33.9975L31.7925 30.915L35.0775 21.15L38.205 20.0925L40.455 21.735C40.4775 21.9825 40.5 22.23 40.5 22.5C40.5 26.9775 38.8575 31.0725 36.135 34.2225Z" fill="#FEF9EF"/>
</svg>
