<svg width="31" height="35" viewBox="0 0 31 35" fill="none" xmlns="http://www.w3.org/2000/svg">
<path d="M2.80769 2.30769C2.19565 2.30769 1.60868 2.55082 1.17591 2.9836C0.743131 3.41638 0.5 4.00335 0.5 4.61538V6.92308C0.5 7.53511 0.743131 8.12209 1.17591 8.55486C1.60868 8.98764 2.19565 9.23077 2.80769 9.23077H3.96154V30C3.96154 31.2241 4.4478 32.398 5.31335 33.2636C6.17891 34.1291 7.35285 34.6154 8.57692 34.6154H22.4231C23.6472 34.6154 24.8211 34.1291 25.6866 33.2636C26.5522 32.398 27.0385 31.2241 27.0385 30V9.23077H28.1923C28.8043 9.23077 29.3913 8.98764 29.8241 8.55486C30.2569 8.12209 30.5 7.53511 30.5 6.92308V4.61538C30.5 4.00335 30.2569 3.41638 29.8241 2.9836C29.3913 2.55082 28.8043 2.30769 28.1923 2.30769H20.1154C20.1154 1.69565 19.8723 1.10868 19.4395 0.675907C19.0067 0.243131 18.4197 0 17.8077 0L13.1923 0C12.5803 0 11.9933 0.243131 11.5605 0.675907C11.1277 1.10868 10.8846 1.69565 10.8846 2.30769H2.80769ZM9.73077 11.5385C10.0368 11.5385 10.3303 11.66 10.5467 11.8764C10.763 12.0928 10.8846 12.3863 10.8846 12.6923V28.8462C10.8846 29.1522 10.763 29.4457 10.5467 29.662C10.3303 29.8784 10.0368 30 9.73077 30C9.42475 30 9.13127 29.8784 8.91488 29.662C8.69849 29.4457 8.57692 29.1522 8.57692 28.8462V12.6923C8.57692 12.3863 8.69849 12.0928 8.91488 11.8764C9.13127 11.66 9.42475 11.5385 9.73077 11.5385V11.5385ZM15.5 11.5385C15.806 11.5385 16.0995 11.66 16.3159 11.8764C16.5323 12.0928 16.6538 12.3863 16.6538 12.6923V28.8462C16.6538 29.1522 16.5323 29.4457 16.3159 29.662C16.0995 29.8784 15.806 30 15.5 30C15.194 30 14.9005 29.8784 14.6841 29.662C14.4677 29.4457 14.3462 29.1522 14.3462 28.8462V12.6923C14.3462 12.3863 14.4677 12.0928 14.6841 11.8764C14.9005 11.66 15.194 11.5385 15.5 11.5385V11.5385ZM22.4231 12.6923V28.8462C22.4231 29.1522 22.3015 29.4457 22.0851 29.662C21.8687 29.8784 21.5752 30 21.2692 30C20.9632 30 20.6697 29.8784 20.4533 29.662C20.2369 29.4457 20.1154 29.1522 20.1154 28.8462V12.6923C20.1154 12.3863 20.2369 12.0928 20.4533 11.8764C20.6697 11.66 20.9632 11.5385 21.2692 11.5385C21.5752 11.5385 21.8687 11.66 22.0851 11.8764C22.3015 12.0928 22.4231 12.3863 22.4231 12.6923V12.6923Z" fill="#FEF9EF"/>
</svg>
