<svg width="360" height="109" viewBox="0 0 360 109" fill="none" xmlns="http://www.w3.org/2000/svg">
<path d="M81.6241 0.772965C83.4015 1.80201 84.7112 3.25203 85.5531 5.12302C86.4886 6.90046 86.9564 8.865 86.9564 11.0166C86.9564 12.8876 86.5822 14.7586 85.8338 16.6296C85.0854 18.5006 84.1031 20.0442 82.887 21.2603C81.4837 21.1668 79.3789 21.12 76.5724 21.12C74.7949 21.12 71.5675 21.2135 66.89 21.4006L59.4528 21.541C59.9206 18.828 58.798 25.1426 56.085 40.4848L53.2786 56.4817C52.3431 62.0012 51.3608 69.2512 50.3317 78.232C49.3962 85.9031 48.5543 91.2822 47.8059 94.3693C47.1511 97.4564 46.0752 99 44.5784 99C42.4268 99 39.8542 98.2516 36.8606 96.7548C33.9606 95.1645 31.388 93.2935 29.1428 91.1418C26.9911 88.9902 25.9153 87.2128 25.9153 85.8095C25.8218 83.6579 26.9444 77.2965 29.2831 66.7254C31.0605 57.8382 32.3235 51.243 33.0718 46.9397C33.0718 47.1268 33.8202 43.2445 35.317 35.2928C36.6267 28.183 37.4219 23.8329 37.7026 22.2426L15.812 24.9088C14.0345 23.9733 12.5845 22.6168 11.4619 20.8393C10.4329 18.9684 9.91833 16.957 9.91833 14.8054C9.91833 11.0634 11.3684 7.74241 14.2684 4.84238C19.6007 4.09398 26.2427 3.62623 34.1944 3.43913C42.2397 3.15848 47.0107 2.97138 48.5075 2.87783C58.3302 2.59718 65.4868 2.36331 69.9771 2.17621C74.5611 1.89556 78.4434 1.42781 81.6241 0.772965Z" fill="#FEF9EF"/>
<path d="M217.048 1.74811C228.368 2.68361 238.845 5.49009 248.481 10.1676C258.117 14.845 265.741 20.7387 271.354 27.8484C276.967 34.8647 279.773 42.2551 279.773 50.0197C279.773 56.8488 276.78 64.3795 270.793 72.6119C264.805 80.8443 257.508 87.8137 248.902 93.5202C240.389 99.2267 232.624 102.08 225.608 102.08C223.269 102.08 220.276 100.911 216.627 98.5719C213.072 96.2332 209.939 93.567 207.226 90.5734C204.513 87.4863 203.156 85.054 203.156 83.2765C203.156 81.6862 204.092 77.2426 205.963 69.9457C207.834 62.3682 209.377 55.5391 210.593 49.4584C211.061 47.1196 212.09 43.0035 213.681 37.1098C213.868 36.2679 214.335 34.584 215.084 32.0582C215.832 29.4388 216.393 27.0533 216.768 24.9016L211.014 24.621C209.518 21.6274 208.769 18.6338 208.769 15.6402C208.769 12.8337 209.471 10.2611 210.874 7.92239C212.277 5.49009 214.335 3.432 217.048 1.74811ZM225.608 83.6975C234.963 78.8329 242.728 72.8925 248.902 65.8763C255.17 58.8601 258.304 52.2649 258.304 46.0906C258.304 42.4422 256.105 38.9341 251.708 35.5663C247.405 32.1985 242.447 29.9533 236.834 28.8307C235.711 34.5372 234.028 42.7228 231.782 53.3875C228.976 66.6715 226.918 76.7749 225.608 83.6975Z" fill="#FEF9EF"/>
<path d="M314.5 64L319.897 69.5122L332.39 57.2354" stroke="#FEF9EF" stroke-width="9.51351" stroke-linecap="round" stroke-linejoin="round"/>
<path d="M291.351 63.8792C291.351 59.966 292.136 56.0912 293.66 52.4759C295.184 48.8607 297.417 45.5758 300.233 42.8087C303.049 40.0417 306.392 37.8468 310.071 36.3493C313.75 34.8518 317.693 34.0811 321.676 34.0811C325.658 34.0811 329.601 34.8518 333.28 36.3493C336.959 37.8468 340.302 40.0417 343.118 42.8087C345.934 45.5758 348.168 48.8607 349.692 52.4759C351.216 56.0912 352 59.966 352 63.8792C352 71.7821 348.805 79.3614 343.118 84.9496C337.431 90.5378 329.718 93.6773 321.676 93.6773C313.633 93.6773 305.92 90.5378 300.233 84.9496C294.546 79.3614 291.351 71.7821 291.351 63.8792V63.8792Z" stroke="#FEF9EF" stroke-width="14.7346" stroke-linecap="round"/>
<path d="M102 64L107.032 69.5122L119.526 57.2354" stroke="#FEF9EF" stroke-width="9.51351" stroke-linecap="round" stroke-linejoin="round"/>
<path d="M78.4865 63.8792C78.4865 59.966 79.2708 56.0912 80.7948 52.4759C82.3187 48.8607 84.5524 45.5758 87.3683 42.8087C90.1841 40.0417 93.5271 37.8468 97.2062 36.3493C100.885 34.8518 104.829 34.0811 108.811 34.0811C112.793 34.0811 116.736 34.8518 120.415 36.3493C124.095 37.8468 127.437 40.0417 130.253 42.8087C133.069 45.5758 135.303 48.8607 136.827 52.4759C138.351 56.0912 139.135 59.966 139.135 63.8792C139.135 71.7821 135.94 79.3614 130.253 84.9496C124.566 90.5378 116.853 93.6773 108.811 93.6773C100.768 93.6773 93.0552 90.5378 87.3683 84.9496C81.6814 79.3614 78.4865 71.7821 78.4865 63.8792V63.8792Z" stroke="#FEF9EF" stroke-width="14.7346" stroke-linecap="round"/>
<rect x="160.541" y="50.7297" width="29.7297" height="19.027" rx="9.51351" fill="#FEF9EF"/>
</svg>
