<svg width="55" height="54" viewBox="0 0 55 54" fill="none" xmlns="http://www.w3.org/2000/svg">
<path d="M6 27.0788C6 24.3107 6.55485 21.5697 7.63286 19.0123C8.71088 16.4549 10.2909 14.1312 12.2829 12.1738C14.2748 10.2165 16.6395 8.66383 19.2421 7.60453C21.8446 6.54522 24.634 6 27.451 6C30.268 6 33.0574 6.54522 35.66 7.60453C38.2625 8.66383 40.6273 10.2165 42.6192 12.1738C44.6111 14.1312 46.1912 16.4549 47.2692 19.0123C48.3472 21.5697 48.902 24.3107 48.902 27.0788C48.902 32.6692 46.642 38.0307 42.6192 41.9837C38.5963 45.9367 33.1402 48.1575 27.451 48.1575C21.7618 48.1575 16.3057 45.9367 12.2829 41.9837C8.26001 38.0307 6 32.6692 6 27.0788V27.0788Z" fill="white" stroke="#073B4C" stroke-width="10.4231" stroke-linecap="round"/>
<path d="M22.6331 27.1642L26.1927 31.0634L35.0305 22.3791" fill="white"/>
<path d="M22.6331 27.1642L26.1927 31.0634L35.0305 22.3791" stroke="#073B4C" stroke-width="6.72973" stroke-linecap="round" stroke-linejoin="round"/>
</svg>
