<svg width="342" height="114" viewBox="0 0 342 114" fill="none" xmlns="http://www.w3.org/2000/svg">
<rect x="3" y="3" width="336" height="108" rx="13" fill="white" stroke="#073B4C" stroke-width="6"/>
<path d="M86.7397 18.5155C87.9971 19.2435 88.9235 20.2692 89.5191 21.5927C90.1809 22.85 90.5118 24.2397 90.5118 25.7618C90.5118 27.0853 90.2471 28.4088 89.7177 29.7323C89.1882 31.0558 88.4934 32.1477 87.6331 33.008C86.6405 32.9418 85.1515 32.9088 83.1663 32.9088C81.9089 32.9088 79.6259 32.9749 76.3171 33.1073L71.0561 33.2065C71.387 31.2874 70.5929 35.7543 68.6738 46.6071L66.6885 57.9232C66.0268 61.8275 65.3319 66.9561 64.604 73.309C63.9422 78.7354 63.3466 82.5405 62.8172 84.7243C62.354 86.9081 61.593 88 60.5342 88C59.0121 88 57.1923 87.4706 55.0747 86.4118C53.0232 85.2868 51.2034 83.9633 49.6152 82.4412C48.0932 80.9192 47.3321 79.6619 47.3321 78.6692C47.266 77.1472 48.0601 72.6472 49.7145 65.1694C50.9718 58.8827 51.8652 54.2173 52.3946 51.1732C52.3946 51.3056 52.924 48.5593 53.9828 42.9344C54.9092 37.905 55.4717 34.8278 55.6703 33.7029L40.1852 35.5889C38.9278 34.9271 37.9021 33.9676 37.108 32.7102C36.3801 31.3867 36.0161 29.9639 36.0161 28.4419C36.0161 25.7949 37.0418 23.4456 39.0933 21.3942C42.8653 20.8648 47.5637 20.5339 53.1887 20.4015C58.8798 20.203 62.2547 20.0707 63.3136 20.0045C70.262 19.806 75.3244 19.6405 78.5009 19.5082C81.7435 19.3096 84.4898 18.9788 86.7397 18.5155Z" fill="#073B4C"/>
<path d="M182.537 19.2053C190.544 19.8671 197.956 21.8524 204.772 25.1611C211.588 28.4699 216.981 32.639 220.952 37.6683C224.923 42.6315 226.908 47.8594 226.908 53.352C226.908 58.1828 224.79 63.51 220.555 69.3334C216.32 75.1569 211.158 80.087 205.07 84.1237C199.048 88.1604 193.555 90.1788 188.592 90.1788C186.938 90.1788 184.82 89.3516 182.239 87.6972C179.725 86.0428 177.508 84.1568 175.589 82.0391C173.669 79.8553 172.71 78.1348 172.71 76.8774C172.71 75.7525 173.372 72.6091 174.695 67.4474C176.019 62.0872 177.111 57.2564 177.971 52.9549C178.302 51.3005 179.03 48.3888 180.155 44.2197C180.287 43.6242 180.618 42.433 181.147 40.6463C181.677 38.7933 182.074 37.1059 182.338 35.5838L178.269 35.3853C177.21 33.2677 176.68 31.15 176.68 29.0324C176.68 27.0472 177.177 25.2273 178.169 23.5729C179.162 21.8524 180.618 20.3965 182.537 19.2053ZM188.592 77.1752C195.21 73.7341 200.702 69.5319 205.07 64.5688C209.504 59.6056 211.72 54.9402 211.72 50.5726C211.72 47.9918 210.165 45.5102 207.055 43.1278C204.011 40.7455 200.504 39.1573 196.533 38.3632C195.739 42.3999 194.548 48.1903 192.96 55.7343C190.974 65.1313 189.519 72.2782 188.592 77.1752Z" fill="#073B4C"/>
<path d="M251.473 63.4176L255.291 67.3168L264.128 58.6324" stroke="#073B4C" stroke-width="6.72973" stroke-linecap="round" stroke-linejoin="round"/>
<path d="M235.098 63.3321C235.098 60.564 235.653 57.823 236.731 55.2656C237.809 52.7083 239.389 50.3846 241.381 48.4272C243.373 46.4699 245.737 44.9172 248.34 43.8579C250.943 42.7986 253.732 42.2534 256.549 42.2534C259.366 42.2534 262.155 42.7986 264.758 43.8579C267.36 44.9172 269.725 46.4699 271.717 48.4272C273.709 50.3846 275.289 52.7083 276.367 55.2656C277.445 57.823 278 60.564 278 63.3321C278 68.9226 275.74 74.284 271.717 78.2371C267.694 82.1901 262.238 84.4109 256.549 84.4109C250.86 84.4109 245.404 82.1901 241.381 78.2371C237.358 74.284 235.098 68.9226 235.098 63.3321V63.3321Z" stroke="#073B4C" stroke-width="10.4231" stroke-linecap="round"/>
<path d="M101.153 63.4176L104.713 67.3168L113.551 58.6324" stroke="#073B4C" stroke-width="6.72973" stroke-linecap="round" stroke-linejoin="round"/>
<path d="M84.5203 63.3321C84.5203 60.564 85.0751 57.823 86.1531 55.2656C87.2312 52.7083 88.8112 50.3846 90.8031 48.4272C92.795 46.4699 95.1598 44.9172 97.7623 43.8579C100.365 42.7986 103.154 42.2534 105.971 42.2534C108.788 42.2534 111.578 42.7986 114.18 43.8579C116.783 44.9172 119.148 46.4699 121.139 48.4272C123.131 50.3846 124.711 52.7083 125.789 55.2656C126.867 57.823 127.422 60.564 127.422 63.3321C127.422 68.9226 125.162 74.284 121.139 78.2371C117.117 82.1901 111.66 84.4109 105.971 84.4109C100.282 84.4109 94.826 82.1901 90.8031 78.2371C86.7803 74.284 84.5203 68.9226 84.5203 63.3321V63.3321Z" stroke="#073B4C" stroke-width="10.4231" stroke-linecap="round"/>
<rect x="142.564" y="54.0304" width="21.0304" height="13.4595" rx="6.72973" fill="#073B4C"/>
<path d="M294.576 88.5919L294.129 90.7234H288.193L288.639 88.5919H294.576ZM291.61 79.2289L289.201 90.7234H286.37L288.779 79.2289H291.61ZM300.741 79.2289L298.332 90.7234H295.509L297.918 79.2289H300.741ZM307.014 87.6682C307.052 87.4893 307.059 87.3287 307.035 87.1866C307.012 87.0393 306.941 86.9024 306.822 86.7761C306.703 86.6498 306.52 86.5235 306.272 86.3972C306.031 86.2656 305.705 86.1288 305.294 85.9867C304.813 85.8182 304.355 85.6288 303.921 85.4183C303.487 85.2025 303.112 84.9525 302.795 84.6683C302.48 84.3788 302.252 84.042 302.112 83.6578C301.973 83.2683 301.958 82.8157 302.066 82.2999C302.17 81.8052 302.376 81.3604 302.684 80.9657C302.994 80.5657 303.38 80.2262 303.842 79.9473C304.31 79.6631 304.834 79.4473 305.413 79.2999C305.994 79.1473 306.609 79.071 307.26 79.071C308.12 79.071 308.847 79.2184 309.442 79.5131C310.042 79.8026 310.472 80.2157 310.731 80.7526C310.996 81.2841 311.052 81.9131 310.9 82.6394H308.085C308.145 82.3499 308.137 82.0946 308.06 81.8736C307.988 81.6525 307.844 81.4789 307.628 81.3525C307.413 81.2262 307.122 81.1631 306.757 81.1631C306.402 81.1631 306.092 81.2157 305.828 81.321C305.564 81.4262 305.352 81.5683 305.19 81.7473C305.03 81.9209 304.928 82.1131 304.884 82.3236C304.848 82.4973 304.863 82.6551 304.93 82.7972C305.003 82.9341 305.119 83.063 305.276 83.1841C305.439 83.3051 305.641 83.4209 305.881 83.5314C306.127 83.642 306.405 83.7499 306.717 83.8551C307.3 84.0499 307.808 84.2683 308.241 84.5104C308.681 84.7472 309.035 85.0183 309.305 85.3235C309.58 85.6235 309.764 85.9656 309.856 86.3498C309.953 86.734 309.95 87.1682 309.849 87.6524C309.741 88.1682 309.542 88.6261 309.254 89.0261C308.966 89.4261 308.602 89.7655 308.162 90.0445C307.722 90.3182 307.222 90.5261 306.66 90.6682C306.097 90.8103 305.488 90.8813 304.832 90.8813C304.23 90.8813 303.651 90.8076 303.096 90.6603C302.547 90.5076 302.069 90.2761 301.661 89.9655C301.254 89.6498 300.959 89.2471 300.777 88.7577C300.601 88.2629 300.584 87.6761 300.726 86.9972H303.565C303.495 87.334 303.481 87.6182 303.524 87.8498C303.567 88.0814 303.662 88.2682 303.81 88.4103C303.958 88.5471 304.155 88.6471 304.4 88.7103C304.646 88.7682 304.936 88.7971 305.269 88.7971C305.629 88.7971 305.93 88.7471 306.172 88.6471C306.414 88.5419 306.604 88.405 306.742 88.2366C306.88 88.0629 306.971 87.8735 307.014 87.6682ZM318.761 79.2289L316.352 90.7234H313.52L315.93 79.2289H318.761ZM322.294 79.2289L321.846 81.3683H312.029L312.478 79.2289H322.294Z" fill="#073B4C"/>
</svg>
